<?xml version="1.0" standalone="no"?>
<!DOCTYPE svg PUBLIC "-//W3C//DTD SVG 20010904//EN"
 "http://www.w3.org/TR/2001/REC-SVG-20010904/DTD/svg10.dtd">
<svg version="1.0" xmlns="http://www.w3.org/2000/svg"
 width="192.000000pt" height="192.000000pt" viewBox="0 0 192.000000 192.000000"
 preserveAspectRatio="xMidYMid meet">
<metadata>
Created by potrace 1.11, written by Peter Selinger 2001-2013
</metadata>
<g transform="translate(0.000000,192.000000) scale(0.100000,-0.100000)"
fill="#000000" stroke="none">
<path d="M1140 1904 c0 -14 3 -14 15 -4 8 7 15 14 15 16 0 2 -7 4 -15 4 -8 0
-15 -7 -15 -16z"/>
<path d="M1187 1871 c-35 -34 -48 -53 -45 -69 3 -20 11 -15 73 48 61 61 66 70
45 69 -15 0 -44 -19 -73 -48z"/>
<path d="M1241 1816 c-77 -78 -102 -108 -99 -125 2 -18 23 -2 128 104 107 107
121 125 100 125 -19 0 -52 -27 -129 -104z"/>
<path d="M1297 1762 c-141 -141 -174 -182 -149 -182 6 0 287 276 341 335 2 3
-4 5 -15 5 -12 0 -82 -63 -177 -158z"/>
<path d="M1391 1750 c-132 -132 -166 -170 -148 -170 15 0 73 51 192 170 127
128 164 170 148 170 -14 0 -77 -56 -192 -170z"/>
<path d="M1495 1750 c-143 -143 -166 -170 -145 -170 19 0 66 41 195 170 143
143 166 170 145 170 -19 0 -66 -41 -195 -170z"/>
<path d="M1605 1750 c-143 -143 -166 -170 -145 -170 19 0 66 41 195 170 143
143 166 170 145 170 -19 0 -66 -41 -195 -170z"/>
<path d="M1715 1750 c-128 -128 -164 -170 -148 -170 14 0 74 53 185 165 89 91
165 168 167 170 2 3 -4 5 -15 5 -12 0 -87 -68 -189 -170z"/>
<path d="M1763 1691 c-107 -106 -153 -158 -153 -174 0 -17 34 12 156 134 103
103 155 162 153 173 -3 13 -47 -25 -156 -133z"/>
<path d="M1762 1587 c-119 -119 -153 -159 -150 -176 2 -18 28 4 156 132 119
119 153 159 150 176 -2 18 -28 -4 -156 -132z"/>
<path d="M1762 1477 c-114 -114 -152 -158 -152 -177 0 -21 24 -1 150 125 132
131 174 184 158 200 -2 2 -72 -64 -156 -148z"/>
<path d="M420 960 l0 -570 575 0 575 0 0 570 0 570 -575 0 -575 0 0 -570z
m503 258 c218 -375 277 -478 277 -483 0 -3 -16 -5 -35 -5 -30 0 -37 5 -61 48
-15 26 -49 83 -74 127 -87 148 -225 389 -228 397 -2 4 12 8 32 8 33 0 37 -4
89 -92z m-90 -17 c17 -29 9 -50 -13 -36 -6 4 -10 -47 -10 -144 l0 -151 25 0
c21 0 25 -5 25 -30 0 -30 -1 -30 -55 -30 l-55 0 0 210 0 210 33 0 c26 0 36 -6
50 -29z m415 -183 l2 -208 -35 0 c-28 0 -37 5 -50 30 -15 29 -15 30 5 30 19 0
20 6 20 150 l0 150 -25 -6 c-23 -6 -25 -4 -25 30 l0 37 53 -3 52 -3 3 -207z
m-436 -335 c3 32 4 32 58 32 30 0 55 -4 55 -10 0 -5 -12 -10 -27 -10 -31 0
-51 -14 -22 -16 38 -2 44 -4 46 -14 2 -5 -12 -11 -30 -13 -42 -4 -31 -22 14
-22 19 0 34 -5 34 -11 0 -6 -19 -9 -47 -7 -41 3 -48 6 -54 28 l-7 25 -1 -27
c-1 -16 -4 -28 -7 -28 -4 0 -22 17 -40 38 l-33 37 -1 -37 c0 -21 -4 -38 -10
-38 -11 0 -14 93 -3 104 4 4 22 -8 40 -27 l32 -35 3 31z m223 27 c7 -11 -39
-25 -54 -15 -6 3 -11 0 -11 -7 0 -8 10 -14 23 -13 31 0 33 -19 2 -23 -38 -5
-30 -22 10 -22 19 0 35 -4 35 -10 0 -5 -20 -10 -45 -10 l-45 0 0 55 0 55 39 0
c22 0 43 -4 46 -10z m110 -45 l0 -50 -45 0 -45 0 -3 39 c-5 59 2 68 50 64 l43
-3 0 -50z m51 30 l16 -25 24 25 c13 14 26 25 29 25 3 0 5 -25 5 -55 0 -30 -4
-55 -10 -55 -5 0 -10 17 -10 38 -1 30 -3 34 -11 20 -5 -10 -15 -18 -21 -18 -6
0 -17 8 -24 18 -12 15 -13 13 -14 -20 0 -21 -4 -38 -10 -38 -5 0 -10 25 -10
55 0 60 11 69 36 30z"/>
<path d="M831 684 c0 -11 3 -14 6 -6 3 7 2 16 -1 19 -3 4 -6 -2 -5 -13z"/>
<path d="M1070 663 c0 -30 3 -33 30 -33 26 0 30 3 30 29 0 24 -5 29 -30 33
-28 4 -30 3 -30 -29z"/>
<path d="M1763 1368 c-98 -98 -153 -161 -153 -174 0 -15 43 23 156 137 98 99
155 163 152 173 -2 11 -50 -31 -155 -136z"/>
<path d="M1758 1260 c-101 -103 -148 -157 -148 -173 0 -17 35 13 155 133 133
133 178 191 148 190 -5 -1 -74 -68 -155 -150z"/>
<path d="M1762 1157 c-119 -119 -153 -159 -150 -176 2 -18 28 4 156 132 119
119 153 159 150 176 -2 18 -28 -4 -156 -132z"/>
<path d="M1762 1047 c-110 -110 -152 -159 -152 -176 0 -19 29 6 155 132 99
100 155 163 155 177 0 11 -1 20 -3 20 -1 0 -71 -69 -155 -153z"/>
<path d="M1762 937 c-99 -99 -153 -160 -150 -171 2 -11 49 30 156 137 99 99
153 160 150 171 -2 11 -49 -30 -156 -137z"/>
<path d="M1762 837 c-119 -119 -153 -159 -150 -176 2 -18 28 4 156 132 119
119 153 159 150 176 -2 18 -28 -4 -156 -132z"/>
<path d="M1762 727 c-119 -119 -153 -159 -150 -176 2 -18 28 4 156 132 119
119 153 159 150 176 -2 18 -28 -4 -156 -132z"/>
<path d="M1763 618 c-114 -114 -153 -160 -153 -178 0 -20 27 3 156 133 115
116 155 162 152 177 -2 16 -33 -10 -155 -132z"/>
<path d="M1585 330 c-227 -227 -324 -330 -310 -330 28 0 648 621 644 644 -3
11 -108 -88 -334 -314z"/>
<path d="M1635 280 c-231 -231 -275 -280 -255 -280 37 0 543 507 538 539 -2
18 -53 -29 -283 -259z"/>
<path d="M1690 225 c-187 -187 -221 -225 -200 -225 37 0 433 397 428 429 -2
18 -43 -18 -228 -204z"/>
<path d="M1155 330 c-9 -10 -15 -26 -13 -35 2 -13 10 -9 35 17 28 29 30 34 14
35 -11 1 -27 -7 -36 -17z"/>
<path d="M1207 280 c-53 -50 -68 -71 -66 -88 4 -20 15 -12 93 67 74 75 85 90
65 88 -14 -1 -51 -28 -92 -67z"/>
<path d="M1390 343 c-8 -3 -68 -58 -132 -121 -88 -87 -118 -123 -118 -142 0
-21 21 -4 140 115 150 150 163 167 110 148z"/>
<path d="M1318 173 c-140 -140 -168 -173 -149 -173 17 0 69 45 192 168 93 93
169 171 169 173 0 3 -9 5 -20 5 -12 0 -85 -66 -192 -173z"/>
<path d="M1745 170 c-124 -124 -164 -170 -149 -170 26 0 324 296 324 322 0 10
-1 18 -3 18 -1 0 -79 -76 -172 -170z"/>
<path d="M1800 115 c-83 -83 -109 -115 -95 -115 27 0 218 192 213 214 -2 12
-37 -17 -118 -99z"/>
<path d="M1850 65 c-58 -59 -62 -65 -39 -65 34 0 112 79 107 109 -3 19 -11 14
-68 -44z"/>
<path d="M1905 10 c-3 -5 -1 -10 4 -10 6 0 11 5 11 10 0 6 -2 10 -4 10 -3 0
-8 -4 -11 -10z"/>
</g>
</svg>
